<svg width="780" height="420" viewBox="0 0 780 420" fill="none" xmlns="http://www.w3.org/2000/svg">
  <rect width="780" height="420" fill="#101722"/>
  <rect y="300" width="780" height="120" fill="#0B0F19"/>
  <path d="M0 300H780" stroke="#263247" stroke-width="2"/>
  <path d="M0 0H170V300H0V0Z" fill="#171F2C"/>
  <path d="M610 0H780V300H610V0Z" fill="#131C29"/>
  <path d="M72 92H150V300H72V92Z" stroke="#2C394E" stroke-width="8"/>
  <path d="M630 90H710V300H630V90Z" stroke="#26364E" stroke-width="8"/>
  <path d="M185 120C260 98 324 88 390 88C456 88 520 98 595 120" stroke="#2A3448" stroke-width="11"/>
  <path d="M174 126H606" stroke="#C15C35" stroke-width="5"/>
  <path d="M174 132H606" stroke="#004F94" stroke-width="3"/>
  <ellipse cx="390" cy="318" rx="126" ry="25" fill="#05080D" opacity="0.9"/>
  <path d="M390 122C406 122 419 135 419 151C419 167 406 180 390 180C374 180 361 167 361 151C361 135 374 122 390 122Z" fill="#D3B09A"/>
  <path d="M360 181C378 170 402 170 420 181L448 248H332L360 181Z" fill="#B58F79"/>
  <path d="M332 248H448L470 324H432L414 272H366L348 324H310L332 248Z" fill="#151B28"/>
  <path d="M298 183L482 183" stroke="#2D3340" stroke-width="12" stroke-linecap="round"/>
  <path d="M220 183H298M482 183H560" stroke="#111821" stroke-width="10" stroke-linecap="round"/>
  <path d="M198 160V206M582 160V206" stroke="#0B0F19" stroke-width="16" stroke-linecap="round"/>
  <path d="M230 156V210M550 156V210" stroke="#1B2534" stroke-width="12" stroke-linecap="round"/>
  <path d="M348 324L326 392M432 324L454 392" stroke="#111821" stroke-width="22" stroke-linecap="round"/>
  <path d="M325 393H284M455 393H496" stroke="#090D14" stroke-width="16" stroke-linecap="round"/>
  <rect width="780" height="420" fill="url(#paint0_radial)" opacity="0.95"/>
  <defs>
    <radialGradient id="paint0_radial" cx="0" cy="0" r="1" gradientUnits="userSpaceOnUse" gradientTransform="translate(390 170) rotate(90) scale(270 480)">
      <stop stop-color="#FFFFFF" stop-opacity="0.05"/>
      <stop offset="0.58" stop-color="#0B0F19" stop-opacity="0.1"/>
      <stop offset="1" stop-color="#02040A" stop-opacity="0.75"/>
    </radialGradient>
  </defs>
</svg>
