<?xml version="1.0" encoding="UTF-8"?>
<svg version="1.1" xmlns="http://www.w3.org/2000/svg" width="500" height="500" viewBox="0 0 500 500">
<path d="M0 0 C3.49805914 2.13904734 6.83496687 4.45727111 10.14746094 6.87207031 C11.66430835 7.96072299 13.18123489 9.04926544 14.69824219 10.13769531 C15.778396 10.91790039 15.778396 10.91790039 16.88037109 11.71386719 C19.18292285 13.37276283 21.50500612 15.00192961 23.83496094 16.62207031 C28.19848282 19.67136733 32.54878012 22.73916764 36.89746094 25.80957031 C37.98124023 26.57454834 37.98124023 26.57454834 39.08691406 27.35498047 C42.85812877 30.01755092 46.62731639 32.68293361 50.39355469 35.35253906 C51.87397055 36.40079084 53.35443827 37.44896939 54.83496094 38.49707031 C55.54394531 38.99988525 56.25292969 39.5027002 56.98339844 40.02075195 C61.40358137 43.14527399 65.86993907 46.17035535 70.46386719 49.03613281 C70.91632813 49.39449219 71.36878906 49.75285156 71.83496094 50.12207031 C71.83496094 50.78207031 71.83496094 51.44207031 71.83496094 52.12207031 C72.89650391 52.50105469 72.89650391 52.50105469 73.97949219 52.88769531 C77.12884943 54.24911377 79.71765759 55.8976112 82.52246094 57.87207031 C83.47507812 58.52691406 84.42769531 59.18175781 85.40917969 59.85644531 C89.85193631 64.00587984 90.26211009 69.72560713 91.45996094 75.49707031 C91.72035156 76.74230469 91.98074219 77.98753906 92.24902344 79.27050781 C92.44238281 80.21152344 92.63574219 81.15253906 92.83496094 82.12207031 C94.40640316 78.64835592 95.79559754 75.24367752 96.97167969 71.61035156 C97.58462891 69.72896484 97.58462891 69.72896484 98.20996094 67.80957031 C98.58894531 66.5965625 98.96792969 65.38355469 99.35839844 64.13378906 C100.83496094 61.12207031 100.83496094 61.12207031 103.20996094 59.77441406 C104.07621094 59.55914062 104.94246094 59.34386719 105.83496094 59.12207031 C106.59035156 58.91324219 107.34574219 58.70441406 108.12402344 58.48925781 C112.69626074 57.52587671 116.99080275 57.01782053 121.67089844 57.06738281 C122.64333496 57.07527832 123.61577148 57.08317383 124.61767578 57.09130859 C125.34937988 57.10145996 126.08108398 57.11161133 126.83496094 57.12207031 C126.86409915 60.68455302 126.88180622 64.24700485 126.89746094 67.80957031 C126.90583984 68.81697266 126.91421875 69.824375 126.92285156 70.86230469 C126.92768555 72.32700195 126.92768555 72.32700195 126.93261719 73.82128906 C126.94047241 75.16453247 126.94047241 75.16453247 126.94848633 76.53491211 C126.83496094 79.12207031 126.83496094 79.12207031 125.83496094 84.12207031 C122.20496094 84.45207031 118.57496094 84.78207031 114.83496094 85.12207031 C115.85105227 86.74781645 116.86715427 88.37355593 117.88330078 89.99926758 C118.77703058 91.42933394 119.67058168 92.85951199 120.56396484 94.28979492 C122.9001802 98.0294555 125.23911864 101.76734609 127.58496094 105.50097656 C128.2455249 106.55381836 128.2455249 106.55381836 128.91943359 107.62792969 C129.75653148 108.96196537 130.59468437 110.29533986 131.43408203 111.62792969 C132.20466709 112.85702086 132.96858812 114.09032059 133.72509766 115.328125 C134.47300818 116.53702216 135.2463109 117.73052893 136.04248047 118.90820312 C138.0139199 121.96999175 138.84628496 123.79820322 138.71777344 127.47363281 C138.46769531 128.55386719 138.21761719 129.63410156 137.95996094 130.74707031 C136.89194566 135.48006432 136.8771401 137.71067144 138.83496094 142.12207031 C139.63192383 141.85467041 140.42888672 141.58727051 141.25 141.31176758 C144.21655382 140.31722414 147.18356089 139.32404796 150.15087891 138.33178711 C151.43328799 137.90264466 152.71551679 137.47296305 153.99755859 137.04272461 C155.84392179 136.42321175 157.69099606 135.80581944 159.53808594 135.18847656 C160.64829102 134.8166626 161.75849609 134.44484863 162.90234375 134.06176758 C165.20632781 133.32350295 167.47950237 132.66583043 169.83496094 132.12207031 C169.83496094 136.36768158 169.35183509 137.40714982 167.20996094 140.88769531 C166.66855469 141.77714844 166.12714844 142.66660156 165.56933594 143.58300781 C164.99699219 144.50339844 164.42464844 145.42378906 163.83496094 146.37207031 C163.26261719 147.30792969 162.69027344 148.24378906 162.10058594 149.20800781 C160.68651843 151.5176514 159.26445467 153.82195407 157.83496094 156.12207031 C158.60839844 155.60257813 159.38183594 155.08308594 160.17871094 154.54785156 C177.24346371 143.12207031 177.24346371 143.12207031 179.83496094 143.12207031 C179.83496094 142.46207031 179.83496094 141.80207031 179.83496094 141.12207031 C180.81078125 140.579375 181.78660156 140.03667969 182.79199219 139.47753906 C184.0772946 138.75514281 185.36244281 138.03247214 186.64746094 137.30957031 C187.61135742 136.77493164 187.61135742 136.77493164 188.59472656 136.22949219 C191.74209096 134.45196515 194.35650735 132.7410929 196.83496094 130.12207031 C198.18401442 129.30667855 199.56227872 128.5384691 200.95996094 127.80957031 C205.17715144 125.55626755 209.02570248 122.97253435 212.88964844 120.16113281 C213.85257812 119.64679688 213.85257812 119.64679688 214.83496094 119.12207031 C215.82496094 119.45207031 216.81496094 119.78207031 217.83496094 120.12207031 C216.51674478 123.65064058 214.95738767 126.75985551 212.97167969 129.95800781 C212.41416016 130.85777344 211.85664063 131.75753906 211.28222656 132.68457031 C210.70150391 133.61269531 210.12078125 134.54082031 209.52246094 135.49707031 C208.95333984 136.41746094 208.38421875 137.33785156 207.79785156 138.28613281 C205.39914652 142.14168627 203.00514794 145.95577915 200.29199219 149.59863281 C197.5999101 153.2841434 195.5188058 157.25582344 193.37060547 161.27539062 C190.95556928 165.75223037 188.36732082 170.12272823 185.77246094 174.49707031 C185.22025879 175.4288208 184.66805664 176.36057129 184.09912109 177.32055664 C180.01894418 184.18057734 175.88908034 191.00938596 171.70996094 197.80957031 C171.165896 198.70015137 170.62183105 199.59073242 170.0612793 200.50830078 C169.29569702 201.74604248 169.29569702 201.74604248 168.51464844 203.00878906 C168.06847168 203.73283936 167.62229492 204.45688965 167.16259766 205.20288086 C165.15182678 208.10958734 163.9122031 209.81738029 160.43017578 210.80224609 C131.00416804 214.42859324 99.2668961 200.48249408 71.60527039 192.15223694 C65.50926838 190.31760145 59.39962956 188.53749925 53.27246094 186.80957031 C51.52099256 186.31406399 49.76968271 185.81799686 48.01855469 185.32128906 C47.2817749 185.11334717 46.54499512 184.90540527 45.78588867 184.69116211 C44.12394517 184.20636793 42.47732918 183.66952639 40.83496094 183.12207031 C39.88354492 180.67285156 39.88354492 180.67285156 39.08105469 177.43457031 C38.78392578 176.26023437 38.48679687 175.08589844 38.18066406 173.87597656 C37.88095703 172.6371875 37.58125 171.39839844 37.27246094 170.12207031 C36.81709961 168.31029297 36.81709961 168.31029297 36.35253906 166.46191406 C34.74780674 160.03599248 33.23698447 153.59509438 31.83496094 147.12207031 C27.29587246 160.85774674 24.34419603 180.78546286 26.83496094 195.12207031 C28.11677097 196.82868058 29.44570173 198.5017264 30.83496094 200.12207031 C30.83496094 201.11207031 30.83496094 202.10207031 30.83496094 203.12207031 C31.49496094 203.12207031 32.15496094 203.12207031 32.83496094 203.12207031 C34.46925844 205.21656712 35.97663328 207.29989122 37.45996094 209.49707031 C38.0903125 210.40199219 38.0903125 210.40199219 38.73339844 211.32519531 C41.83496094 215.85669897 41.83496094 215.85669897 41.83496094 218.12207031 C42.49496094 218.12207031 43.15496094 218.12207031 43.83496094 218.12207031 C45.56380554 220.34021056 47.18163041 222.558135 48.77246094 224.87207031 C49.65624461 226.13792641 50.54035111 227.40355719 51.42480469 228.66894531 C51.83972168 229.27287109 52.25463867 229.87679687 52.68212891 230.49902344 C53.89123793 232.25054451 53.89123793 232.25054451 55.65136719 234.26269531 C57.17651813 236.65864201 56.92154022 238.33210286 56.83496094 241.12207031 C55.7944458 241.02140259 55.7944458 241.02140259 54.73291016 240.91870117 C45.190523 240.05299521 35.66134647 239.80239128 26.08496094 239.60449219 C24.85003906 239.57033203 23.61511719 239.53617188 22.34277344 239.50097656 C21.23562988 239.47592041 20.12848633 239.45086426 18.98779297 239.42504883 C15.68178919 239.10735093 12.93461902 238.28903818 9.83496094 237.12207031 C9.83496094 236.46207031 9.83496094 235.80207031 9.83496094 235.12207031 C9.17496094 235.12207031 8.51496094 235.12207031 7.83496094 235.12207031 C6.28417969 233.58300781 6.28417969 233.58300781 4.52246094 231.49707031 C3.58853516 230.40072266 3.58853516 230.40072266 2.63574219 229.28222656 C1.15402955 227.50481422 -0.32016064 225.72175582 -1.79003906 223.93457031 C-4.95841562 220.18254544 -8.42960622 216.82481725 -11.97753906 213.43457031 C-14.16503906 211.12207031 -14.16503906 211.12207031 -14.16503906 209.12207031 C-14.82503906 209.12207031 -15.48503906 209.12207031 -16.16503906 209.12207031 C-16.16503906 208.46207031 -16.16503906 207.80207031 -16.16503906 207.12207031 C-16.82503906 207.12207031 -17.48503906 207.12207031 -18.16503906 207.12207031 C-23.16503906 201.64587984 -23.16503906 201.64587984 -23.16503906 199.12207031 C-23.76533936 198.90059326 -24.36563965 198.67911621 -24.98413086 198.45092773 C-32.43886429 193.90865593 -35.73696304 179.12247633 -38.85253906 171.30957031 C-39.79343624 168.96952181 -40.73482768 166.62967197 -41.67675781 164.29003906 C-42.32330322 162.68008057 -42.32330322 162.68008057 -42.98291016 161.03759766 C-44.33161228 157.71124475 -45.72917728 154.41158643 -47.16503906 151.12207031 C-47.15867432 151.97961914 -47.15230957 152.83716797 -47.14575195 153.72070312 C-47.13861857 156.91213469 -47.16269608 160.10139215 -47.20776367 163.29248047 C-47.22087857 164.67165004 -47.22165988 166.05099557 -47.2097168 167.43017578 C-47.12312944 178.86795389 -47.12312944 178.86795389 -49.54833984 181.78710938 C-51.38601249 182.82594966 -53.16260783 183.46372299 -55.16503906 184.12207031 C-56.27363281 184.82847656 -57.38222656 185.53488281 -58.52441406 186.26269531 C-59.64332031 186.95878906 -60.76222656 187.65488281 -61.91503906 188.37207031 C-63.02363281 189.07847656 -64.13222656 189.78488281 -65.27441406 190.51269531 C-75.42630439 195.48115301 -88.49035598 190.57615607 -98.85253906 188.18457031 C-101.33473809 187.62068707 -103.8176465 187.06021808 -106.3014679 186.50352478 C-107.83525671 186.15883686 -109.36805053 185.80967694 -110.89958191 185.45509338 C-114.46389951 184.64532105 -117.93961379 184.00950062 -121.57836914 183.64135742 C-125.16503906 183.12207031 -125.16503906 183.12207031 -127.04003906 180.96582031 C-130.83163753 171.38150196 -132.96223699 161.16818278 -135.16503906 151.12207031 C-136.88671735 152.8437486 -136.33514998 155.16423065 -136.37597656 157.51269531 C-136.40433594 158.61484375 -136.43269531 159.71699219 -136.46191406 160.85253906 C-136.51364715 163.18311454 -136.5580201 165.51386599 -136.59472656 167.84472656 C-136.62566406 168.95203125 -136.65660156 170.05933594 -136.68847656 171.20019531 C-136.7082959 172.21500977 -136.72811523 173.22982422 -136.74853516 174.27539062 C-137.35827531 178.44278228 -138.78993346 181.08276194 -142.16357422 183.63256836 C-142.91944824 184.04547119 -143.67532227 184.45837402 -144.45410156 184.88378906 C-145.73015259 185.59486816 -145.73015259 185.59486816 -147.03198242 186.3203125 C-148.39722046 187.05749512 -148.39722046 187.05749512 -149.79003906 187.80957031 C-151.70075946 188.86975213 -153.61090836 189.93096452 -155.52050781 190.99316406 C-156.4736084 191.51894043 -157.42670898 192.0447168 -158.40869141 192.58642578 C-162.34726772 194.7807256 -166.22693439 197.06892608 -170.10253906 199.37207031 C-176.43811917 203.11996239 -182.80998313 206.7973407 -189.21191406 210.43066406 C-191.88434485 211.96130233 -194.53076187 213.52686912 -197.16503906 215.12207031 C-195.89983805 219.83882846 -194.48454816 224.44421499 -192.59472656 228.95019531 C-192.31902832 229.60882568 -192.04333008 230.26745605 -191.75927734 230.94604492 C-191.20403045 232.25387776 -190.63756988 233.55701615 -190.05908203 234.85473633 C-188.4346154 238.68340302 -187.85594642 241.12629336 -189.16503906 245.12207031 C-192.4559075 245.46360124 -195.74782983 245.79373678 -199.04003906 246.12207031 C-200.41675781 246.26515625 -200.41675781 246.26515625 -201.82128906 246.41113281 C-206.43314865 246.86582319 -211.03999835 247.23060915 -215.67285156 247.37207031 C-216.86225342 247.41074219 -216.86225342 247.41074219 -218.07568359 247.45019531 C-220.72380712 247.034318 -221.59933971 246.2690285 -223.16503906 244.12207031 C-223.16503906 243.13207031 -223.16503906 242.14207031 -223.16503906 241.12207031 C-223.82503906 241.12207031 -224.48503906 241.12207031 -225.16503906 241.12207031 C-226.00035156 239.59839844 -226.00035156 239.59839844 -226.85253906 238.04394531 C-231.0869792 230.38384871 -235.43361527 222.95855963 -240.43847656 215.77050781 C-245.20996784 208.45134246 -245.20996784 208.45134246 -245.05175781 203.77050781 C-244.0322095 199.57553809 -242.61852056 195.73168646 -240.97753906 191.74707031 C-238.57830089 185.76955733 -236.30960693 179.77963868 -234.22753906 173.68457031 C-230.99959848 164.30562817 -227.10067033 155.22196901 -223.16503906 146.12207031 C-224.25042969 146.68796875 -225.33582031 147.25386719 -226.45410156 147.83691406 C-227.89919437 148.5782279 -229.34451923 149.31908949 -230.79003906 150.05957031 C-231.50289062 150.43275391 -232.21574219 150.8059375 -232.95019531 151.19042969 C-237.03422008 153.26991019 -240.53526116 154.66201352 -245.16503906 155.12207031 C-244.66534916 151.87408594 -243.30469728 149.65740103 -241.44628906 146.98925781 C-239.91526966 144.7580771 -238.48091813 142.4750243 -237.04003906 140.18457031 C-234.0043092 135.41695986 -230.94834106 130.66336587 -227.85253906 125.93457031 C-227.41989746 125.26240479 -226.98725586 124.59023926 -226.54150391 123.89770508 C-225.46867624 122.26987184 -224.32289006 120.69056682 -223.16503906 119.12207031 C-222.50503906 119.12207031 -221.84503906 119.12207031 -221.16503906 119.12207031 C-221.04660645 118.53506348 -220.92817383 117.94805664 -220.80615234 117.34326172 C-220.13697908 115.02485413 -219.28742061 113.54968965 -217.90722656 111.58300781 C-217.22092163 110.5954248 -217.22092163 110.5954248 -216.52075195 109.58789062 C-216.0321167 108.89791992 -215.54348145 108.20794922 -215.04003906 107.49707031 C-214.5430249 106.78647461 -214.04601074 106.07587891 -213.53393555 105.34375 C-212.53908623 103.92221405 -211.54197338 102.50225923 -210.54248047 101.08398438 C-209.35618109 99.39431727 -208.18669501 97.69286826 -207.02050781 95.98925781 C-206.42882812 95.12558594 -205.83714844 94.26191406 -205.22753906 93.37207031 C-204.72351563 92.63472656 -204.21949219 91.89738281 -203.70019531 91.13769531 C-200.10651285 86.41927254 -197.00365612 84.39031078 -191.41503906 82.30957031 C-190.06250089 81.79520147 -188.71096795 81.2781831 -187.36035156 80.75878906 C-186.66586914 80.49243652 -185.97138672 80.22608398 -185.25585938 79.95166016 C-181.8862918 78.61469255 -178.59419924 77.11166752 -175.29003906 75.62207031 C-169.0884994 72.85036022 -162.81184889 70.47219906 -156.36279297 68.33886719 C-151.4495943 66.68528134 -146.80348038 64.62705214 -142.09985352 62.45166016 C-137.01722633 60.14902413 -131.83900215 58.08424626 -126.66503906 55.99707031 C-124.28738938 55.03364097 -121.90978662 54.07009582 -119.53222656 53.10644531 C-118.32018555 52.61595703 -117.10814453 52.12546875 -115.859375 51.62011719 C-112.19039774 50.13235321 -108.52480425 48.63656577 -104.86035156 47.13769531 C-103.67505859 46.65316895 -102.48976562 46.16864258 -101.26855469 45.66943359 C-99.02473828 44.7519382 -96.78122572 43.8336992 -94.53808594 42.91455078 C-88.06464021 40.27152848 -81.56116947 37.72217759 -75.03027344 35.22460938 C-71.86608678 34.0070338 -68.72978862 32.74375267 -65.60253906 31.43457031 C-64.6525 31.03882813 -63.70246094 30.64308594 -62.72363281 30.23535156 C-60.19891912 29.19417993 -60.19891912 29.19417993 -58.07519531 27.91503906 C-56.16503906 27.12207031 -56.16503906 27.12207031 -54.13769531 27.23144531 C-51.46815216 28.4367044 -50.33792298 30.02716676 -48.60253906 32.37207031 C-47.73435547 33.52449219 -47.73435547 33.52449219 -46.84863281 34.70019531 C-45.16961771 37.11548387 -43.66651771 39.59376213 -42.16503906 42.12207031 C-42.12016357 41.38045654 -42.07528809 40.63884277 -42.02905273 39.87475586 C-41.81789673 36.51861134 -41.58547886 33.16427026 -41.35253906 29.80957031 C-41.2471582 28.05870117 -41.2471582 28.05870117 -41.13964844 26.27246094 C-41.05908203 25.15419922 -40.97851562 24.0359375 -40.89550781 22.88378906 C-40.8274292 21.85213623 -40.75935059 20.8204834 -40.68920898 19.75756836 C-40.09924578 16.79126525 -39.54045784 15.9203688 -37.16503906 14.12207031 C-35.50195312 13.06640625 -35.50195312 13.06640625 -33.68066406 12.10644531 C-32.99987793 11.74518555 -32.3190918 11.38392578 -31.61767578 11.01171875 C-30.52737061 10.44759277 -30.52737061 10.44759277 -29.41503906 9.87207031 C-28.66367676 9.4830957 -27.91231445 9.09412109 -27.13818359 8.69335938 C-25.58220191 7.89265466 -24.02439993 7.09547788 -22.46484375 6.30175781 C-20.28140523 5.18176048 -18.11791439 4.02938699 -15.95410156 2.87207031 C-14.65044835 2.20338338 -13.34580676 1.53661875 -12.04003906 0.87207031 C-10.88246094 0.26878906 -9.72488281 -0.33449219 -8.53222656 -0.95605469 C-4.91214799 -1.94716669 -3.3122214 -1.71601454 0 0 Z M99.83496094 131.12207031 C101.42417619 136.48302308 103.02469032 141.83051005 104.83496094 147.12207031 C107.14496094 147.12207031 109.45496094 147.12207031 111.83496094 147.12207031 C112.32157248 142.22377387 112.32157248 142.22377387 110.20996094 137.99707031 C109.42621094 137.37832031 108.64246094 136.75957031 107.83496094 136.12207031 C107.32964844 135.67605469 106.82433594 135.23003906 106.30371094 134.77050781 C103.4834567 132.00906957 103.4834567 132.00906957 99.83496094 131.12207031 Z " fill="#7448DF" transform="translate(264.1650390625,126.8779296875)"/>
<path d="M0 0 C-0.02618408 0.88260498 -0.05236816 1.76520996 -0.0793457 2.67456055 C-0.16480275 5.9641158 -0.22735745 9.25248422 -0.2746582 12.54272461 C-0.29973147 13.96381291 -0.33379999 15.38477313 -0.37719727 16.80541992 C-0.43817858 18.85367462 -0.46627762 20.90021883 -0.48828125 22.94921875 C-0.51446533 24.17987061 -0.54064941 25.41052246 -0.56762695 26.6784668 C0.15826659 30.9261148 1.75162339 32.26968475 5 35 C7.8125 37.625 7.8125 37.625 10 40 C10 40.99 10 41.98 10 43 C6.50791819 44.16402727 3.60852228 44.21118508 -0.07421875 44.31640625 C-0.7580513 44.33718735 -1.44188385 44.35796844 -2.1464386 44.37937927 C-4.3266921 44.44466154 -6.50706405 44.50366017 -8.6875 44.5625 C-10.16732986 44.60570553 -11.64714783 44.64932047 -13.12695312 44.69335938 C-16.75117622 44.80032083 -20.37553189 44.90164823 -24 45 C-24.66257139 42.62578586 -25.00465036 41.04534098 -24.75 38.5625 C-25.11305989 34.84113611 -27.33584071 33.3485006 -30 31 C-31.47255576 29.66131295 -32.93028057 28.30618157 -34.375 26.9375 C-35.08398438 26.28652344 -35.79296875 25.63554687 -36.5234375 24.96484375 C-38 23 -38 23 -37.85913086 21.05029297 C-36.69773324 18.2786484 -35.34875417 17.66475108 -32.73046875 16.23046875 C-31.84673584 15.73708008 -30.96300293 15.24369141 -30.05249023 14.73535156 C-29.10704346 14.22456055 -28.16159668 13.71376953 -27.1875 13.1875 C-25.26527018 12.12433919 -23.34339323 11.06054012 -21.421875 9.99609375 C-20.48923828 9.4841748 -19.55660156 8.97225586 -18.59570312 8.44482422 C-14.4167105 6.11870699 -10.34792177 3.61986364 -6.27734375 1.109375 C-4 0 -4 0 0 0 Z " fill="#7448DF" transform="translate(119,324)"/>
<path d="M0 0 C1.13199353 0.9080162 2.25532363 1.82683826 3.375 2.75 C4.00148437 3.26046875 4.62796875 3.7709375 5.2734375 4.296875 C7 6 7 6 8.0390625 8.140625 C8.91104318 10.35790369 8.91104318 10.35790369 12 11 C13.6484375 12.671875 13.6484375 12.671875 15.375 14.75 C17.47775626 17.24116346 19.575801 19.62768528 21.9375 21.875 C24 24 24 24 24 26 C24.5878125 26.25007813 25.175625 26.50015625 25.78125 26.7578125 C28.29341102 28.16426885 29.66645352 29.66640992 31.5 31.875 C33.42181162 34.15637637 35.29764382 36.29001192 37.4375 38.375 C39 40 39 40 39 42 C39.66 42 40.32 42 41 42 C41 42.99 41 43.98 41 45 C25.82 45 10.64 45 -5 45 C-5.495 43.515 -5.495 43.515 -6 42 C-4.78515625 40.44921875 -4.78515625 40.44921875 -3.0625 38.6875 C1.45338793 32.91719876 0.4825141 26.95836124 0 20 C-0.14598231 17.42908928 -0.28380782 14.85784089 -0.41967773 12.28637695 C-0.51409901 10.56823253 -0.61762384 8.85056167 -0.73071289 7.13354492 C-0.85832982 5.09104335 -0.93415558 3.04542496 -1 1 C-0.67 0.67 -0.34 0.34 0 0 Z " fill="#7448DF" transform="translate(215,319)"/>
<path d="M0 0 C3.0564772 2.03765147 4.56847797 3.62569807 6 7 C6.87483915 9.16715557 6.87483915 9.16715557 8 11 C8.99 11.33 9.98 11.66 11 12 C10 14 10 14 6.9375 15.125 C5.4834375 15.558125 5.4834375 15.558125 4 16 C3.87963336 21.77759884 4.1679418 27.27959989 5 33 C4.01 33.495 4.01 33.495 3 34 C1.79431947 29.32798795 1.90617574 24.78503708 2 20 C1.34 20 0.68 20 0 20 C-0.19594676 16.85463232 -0.3803401 13.70869386 -0.5625 10.5625 C-0.61857422 9.66466797 -0.67464844 8.76683594 -0.73242188 7.84179688 C-0.78076172 6.98779297 -0.82910156 6.13378906 -0.87890625 5.25390625 C-0.9260376 4.46314697 -0.97316895 3.6723877 -1.02172852 2.85766602 C-1 1 -1 1 0 0 Z " fill="#7448DF" transform="translate(215,319)"/>
<path d="M0 0 C0.20272358 10.02355489 -0.41960044 19.99847189 -1 30 C-1.33 30 -1.66 30 -2 30 C-2 24.06 -2 18.12 -2 12 C-2.66 12 -3.32 12 -4 12 C-4 11.34 -4 10.68 -4 10 C-4.94875 10.020625 -5.8975 10.04125 -6.875 10.0625 C-10 10 -10 10 -12 9 C-12 8.34 -12 7.68 -12 7 C-13.32 7.33 -14.64 7.66 -16 8 C-13.75132631 5.550167 -11.4579695 3.93845505 -8.5625 2.3125 C-7.80066406 1.87550781 -7.03882812 1.43851562 -6.25390625 0.98828125 C-4 0 -4 0 0 0 Z " fill="#7448DF" transform="translate(119,324)"/>
<path d="M0 0 C0.66 1.32 1.32 2.64 2 4 C2.36480469 4.72058594 2.72960937 5.44117188 3.10546875 6.18359375 C3.64107422 7.29927734 3.64107422 7.29927734 4.1875 8.4375 C4.55230469 9.17871094 4.91710937 9.91992188 5.29296875 10.68359375 C6.14640593 13.47966143 5.77097616 15.21564661 5 18 C1.70913156 18.34153092 -1.58279077 18.67166646 -4.875 19 C-5.7928125 19.09539062 -6.710625 19.19078125 -7.65625 19.2890625 C-12.26810958 19.74375288 -16.87495929 20.10853883 -21.5078125 20.25 C-22.30074707 20.27578125 -23.09368164 20.3015625 -23.91064453 20.328125 C-26.55876805 19.91224769 -27.43430065 19.14695818 -29 17 C-29 16.01 -29 15.02 -29 14 C-29.66 14 -30.32 14 -31 14 C-31 13.34 -31 12.68 -31 12 C-30.01 12 -29.02 12 -28 12 C-27.57098389 12.65194336 -27.14196777 13.30388672 -26.69995117 13.97558594 C-25.12893643 16.29438596 -25.12893643 16.29438596 -22.1809082 16.45410156 C-21.06546631 16.4331543 -19.95002441 16.41220703 -18.80078125 16.390625 C-16.98803711 16.37128906 -16.98803711 16.37128906 -15.13867188 16.3515625 C-13.87603516 16.31804687 -12.61339844 16.28453125 -11.3125 16.25 C-9.40114258 16.22292969 -9.40114258 16.22292969 -7.45117188 16.1953125 C-4.30003159 16.14810441 -1.1503886 16.08226384 2 16 C2.33 14.02 2.66 12.04 3 10 C2.01 9.67 1.02 9.34 0 9 C0 6.03 0 3.06 0 0 Z " fill="#7448DF" transform="translate(70,354)"/>
<path d="M0 0 C1.921875 2.06640625 1.921875 2.06640625 3.75 4.5625 C4.36359375 5.38878906 4.9771875 6.21507812 5.609375 7.06640625 C6.29773438 8.02353516 6.29773438 8.02353516 7 9 C6.67 9.66 6.34 10.32 6 11 C5.01 10.67 4.02 10.34 3 10 C3 8.68 3 7.36 3 6 C1.35 5.34 -0.3 4.68 -2 4 C-2 3.34 -2 2.68 -2 2 C-7.83880959 4.16936008 -12.81825337 6.50533367 -18 10 C-21.97621423 11.22345053 -25.86104489 11.08115598 -30 11 C-28.49453647 7.98907294 -26.30599264 7.82317881 -23.1875 6.6875 C-17.53897964 4.60351947 -12.04171657 2.30520127 -6.55859375 -0.1796875 C-3.72339081 -1.08868386 -2.66595906 -1.29175336 0 0 Z " fill="#7448DF" transform="translate(212,155)"/>
<path d="M0 0 C10.34517543 0.62498675 20.16034688 1.6455728 30 5 C32.32694964 5.37531446 34.65976685 5.71917202 37 6 C37 5.34 37 4.68 37 4 C39.31 4 41.62 4 44 4 C38.22286518 8.4291367 34.21012485 8.43435822 27 8 C22.72405201 7.35837581 18.52822031 6.45518464 14.3125 5.5 C13.21744141 5.26152344 12.12238281 5.02304687 10.99414062 4.77734375 C8.32702087 4.19500319 5.6626358 3.60244979 3 3 C3 2.34 3 1.68 3 1 C2.01 0.67 1.02 0.34 0 0 Z " fill="#7448DF" transform="translate(157,311)"/>
<path d="M0 0 C0.02913821 3.5624827 0.04684529 7.12493454 0.0625 10.6875 C0.07087891 11.69490234 0.07925781 12.70230469 0.08789062 13.74023438 C0.09272461 15.20493164 0.09272461 15.20493164 0.09765625 16.69921875 C0.10551147 18.04246216 0.10551147 18.04246216 0.11352539 19.4128418 C-0.00159802 22.03641759 -0.41765715 24.44293053 -1 27 C-1.78246094 27.04898438 -2.56492187 27.09796875 -3.37109375 27.1484375 C-4.38300781 27.22320312 -5.39492188 27.29796875 -6.4375 27.375 C-7.44683594 27.44460937 -8.45617187 27.51421875 -9.49609375 27.5859375 C-10.32238281 27.72257812 -11.14867187 27.85921875 -12 28 C-12.33 28.66 -12.66 29.32 -13 30 C-13 29.01 -13 28.02 -13 27 C-9.37 26.67 -5.74 26.34 -2 26 C-2.495 14.12 -2.495 14.12 -3 2 C-8.4156181 2.69510468 -8.4156181 2.69510468 -13.82910156 3.40649414 C-14.5094043 3.49020264 -15.18970703 3.57391113 -15.890625 3.66015625 C-16.58188477 3.74918213 -17.27314453 3.83820801 -17.98535156 3.92993164 C-20.17430848 4.00606235 -21.91005813 3.6249336 -24 3 C-22.06679096 2.483658 -20.12806591 1.98796535 -18.1875 1.5 C-17.10855469 1.2215625 -16.02960938 0.943125 -14.91796875 0.65625 C-9.91204384 -0.18222994 -5.06195582 -0.12395221 0 0 Z " fill="#7448DF" transform="translate(391,184)"/>
<path d="M0 0 C0.99 0.33 1.98 0.66 3 1 C1.56786488 4.93657242 -0.30332154 8.28931356 -2.5625 11.8125 C-3.18253906 12.78832031 -3.80257813 13.76414062 -4.44140625 14.76953125 C-5.21291016 15.87361328 -5.21291016 15.87361328 -6 17 C-6.33 17 -6.66 17 -7 17 C-7 14.33333333 -7 11.66666667 -7 9 C-9.02045442 9.60183749 -11.02111039 10.27306096 -13 11 C-13.33 11.66 -13.66 12.32 -14 13 C-16.48412207 13.82804069 -18.35220307 14 -21 14 C-18.82548657 11.62718188 -16.72169743 10.17206801 -13.875 8.6875 C-9.6578095 6.43419723 -5.80925846 3.85046404 -1.9453125 1.0390625 C-1.30335938 0.69617188 -0.66140625 0.35328125 0 0 Z " fill="#7448DF" transform="translate(479,246)"/>
<path d="M0 0 C1.32 0 2.64 0 4 0 C5 2 5 2 5 9 C15.23 9 25.46 9 36 9 C36.33 8.34 36.66 7.68 37 7 C37 7.99 37 8.98 37 10 C33.50791819 11.16402727 30.60852228 11.21118508 26.92578125 11.31640625 C26.2419487 11.33718735 25.55811615 11.35796844 24.8535614 11.37937927 C22.6733079 11.44466154 20.49293595 11.50366017 18.3125 11.5625 C16.83267014 11.60570553 15.35285217 11.64932047 13.87304688 11.69335938 C10.24882378 11.80032083 6.62446811 11.90164823 3 12 C2.35988357 9.66283069 2.00283859 7.88361801 2.0625 5.4375 C2.21001775 2.73740376 2.21001775 2.73740376 0 0 Z " fill="#7448DF" transform="translate(92,357)"/>
<path d="M0 0 C4.39081764 1.5214886 8.02875969 3.85939639 11.8125 6.5 C12.7087207 7.10521484 12.7087207 7.10521484 13.62304688 7.72265625 C15.12143611 8.76039782 16.56615614 9.87475797 18 11 C18 11.66 18 12.32 18 13 C19.051875 13.37125 19.051875 13.37125 20.125 13.75 C23.37002459 15.16088026 26.10316737 16.97895398 29 19 C25.78177396 20.07033136 23.96857567 19.95795392 20.8125 18.75 C20.11769531 18.49734375 19.42289062 18.2446875 18.70703125 17.984375 C17 17 17 17 16 14 C15.01 13.67 14.02 13.34 13 13 C13 12.34 13 11.68 13 11 C12.34 11 11.68 11 11 11 C11 10.34 11 9.68 11 9 C10.34 9 9.68 9 9 9 C9 8.34 9 7.68 9 7 C8.46375 6.896875 7.9275 6.79375 7.375 6.6875 C4.37497956 5.81907303 1.7620465 4.44379704 -1 3 C-0.67 2.01 -0.34 1.02 0 0 Z " fill="#7448DF" transform="translate(318,166)"/>
<path d="M0 0 C0 0.99 0 1.98 0 3 C1.0194873 3.01981934 2.03897461 3.03963867 3.08935547 3.06005859 C6.86532648 3.13602808 10.64090773 3.22475809 14.41650391 3.31738281 C16.0518424 3.35570852 17.68726624 3.39055507 19.32275391 3.421875 C21.6712091 3.46744842 24.01907495 3.52545367 26.3671875 3.5859375 C27.46726639 3.60326431 27.46726639 3.60326431 28.58956909 3.62094116 C33.77225659 3.77225659 33.77225659 3.77225659 36 6 C23.13 6 10.26 6 -3 6 C-2.67 4.35 -2.34 2.7 -2 1 C-1.34 0.67 -0.68 0.34 0 0 Z " fill="#7448DF" transform="translate(214,357)"/>
<path d="M0 0 C0.625 1.875 0.625 1.875 1 4 C0.34 4.66 -0.32 5.32 -1 6 C-0.938125 7.134375 -0.87625 8.26875 -0.8125 9.4375 C-0.874375 10.613125 -0.93625 11.78875 -1 13 C-3.3125 14.75 -3.3125 14.75 -6 16 C-6.515625 16.53625 -7.03125 17.0725 -7.5625 17.625 C-9.29779613 19.28484848 -10.66471604 19.59736483 -13 20 C-11.64671201 16.24831052 -9.94336362 13.23963476 -7.625 10 C-7.00753906 9.13632813 -6.39007813 8.27265625 -5.75390625 7.3828125 C-3.90105033 4.86556949 -2.00116356 2.40139627 0 0 Z " fill="#7448DF" transform="translate(63,215)"/>
<path d="M0 0 C0 0.66 0 1.32 0 2 C-4.48558371 5.28942805 -9.84413523 7.02910368 -15 9 C-15.71929687 9.28101563 -16.43859375 9.56203125 -17.1796875 9.8515625 C-29.16942161 14.47017603 -29.16942161 14.47017603 -34 13 C-30.24642224 11.46984507 -26.49275736 9.93990409 -22.73901367 8.41015625 C-21.46359941 7.89035746 -20.18820845 7.37050151 -18.9128418 6.85058594 C-17.07346715 6.10075886 -15.23400012 5.3511584 -13.39453125 4.6015625 C-12.28956299 4.15119629 -11.18459473 3.70083008 -10.04614258 3.23681641 C-9.04091553 2.82866699 -8.03568848 2.42051758 -7 2 C-6.08436279 1.61634277 -5.16872559 1.23268555 -4.2253418 0.83740234 C-2 0 -2 0 0 0 Z " fill="#7448DF" transform="translate(181,166)"/>
<path d="M0 0 C0.99 0.33 1.98 0.66 3 1 C3 1.66 3 2.32 3 3 C3.99 3.33 4.98 3.66 6 4 C5.67 4.66 5.34 5.32 5 6 C4.34 5.67 3.68 5.34 3 5 C3.27714844 5.66386719 3.55429687 6.32773437 3.83984375 7.01171875 C4.20207031 7.89472656 4.56429688 8.77773438 4.9375 9.6875 C5.47697266 10.99267578 5.47697266 10.99267578 6.02734375 12.32421875 C6.9570312 14.88179265 7.54162625 17.3221323 8 20 C10.31 20.33 12.62 20.66 15 21 C14.67 18.36 14.34 15.72 14 13 C14.66 13 15.32 13 16 13 C16 15.97 16 18.94 16 22 C7.25 22.125 7.25 22.125 5 21 C4.66666667 19.66666667 4.33333333 18.33333333 4 17 C3.2575 15.9171875 3.2575 15.9171875 2.5 14.8125 C0.02731844 10.17622207 0 5.18559311 0 0 Z " fill="#7448DF" transform="translate(361,253)"/>
<path d="M0 0 C1.56544436 3.13088871 1.00148591 6.42714023 0.87890625 9.8515625 C0.85529526 10.62559418 0.83168427 11.39962585 0.80735779 12.19711304 C0.73068562 14.6732603 0.64667684 17.14909759 0.5625 19.625 C0.50928285 21.30206808 0.45654243 22.97915137 0.40429688 24.65625 C0.27506572 28.77103023 0.13925354 32.88554725 0 37 C-0.66 37 -1.32 37 -2 37 C-2.21710487 32.21342691 -2.41395012 27.42661144 -2.59204102 22.63842773 C-2.65547997 21.00962046 -2.72445596 19.38101906 -2.79907227 17.75268555 C-2.90535765 15.4122672 -2.99172142 13.0718313 -3.07421875 10.73046875 C-3.11157639 10.00224411 -3.14893402 9.27401947 -3.18742371 8.52372742 C-3.33850449 3.44615804 -3.33850449 3.44615804 -1.49536133 1.0168457 C-1.00189209 0.68128662 -0.50842285 0.34572754 0 0 Z " fill="#7448DF" transform="translate(215,268)"/>
<path d="M0 0 C0.66 0 1.32 0 2 0 C2.41277905 26.17654243 2.41277905 26.17654243 0 36 C-0.33 36 -0.66 36 -1 36 C-1.12812705 23.95605749 -0.79553837 12.01831182 0 0 Z " fill="#7448DF" transform="translate(125,269)"/>
<path d="M0 0 C-1.67836743 4.86247022 -4.33192961 8.99070612 -7.0625 13.3125 C-7.52205078 14.05306641 -7.98160156 14.79363281 -8.45507812 15.55664062 C-9.60617617 17.39062209 -10.79939756 19.1980376 -12 21 C-12.33 21 -12.66 21 -13 21 C-13.125 14.25 -13.125 14.25 -12 12 C-10.68 12 -9.36 12 -8 12 C-8 10.68 -8 9.36 -8 8 C-7.34 8 -6.68 8 -6 8 C-6.33 6.35 -6.66 4.7 -7 3 C-8.32 2.67 -9.64 2.34 -11 2 C-9.73392393 1.46770674 -8.46189588 0.94955456 -7.1875 0.4375 C-6.47980469 0.14746094 -5.77210938 -0.14257812 -5.04296875 -0.44140625 C-3 -1 -3 -1 0 0 Z " fill="#7448DF" transform="translate(435,260)"/>
<path d="M0 0 C0.66 0.33 1.32 0.66 2 1 C1.34 4.3 0.68 7.6 0 11 C-0.99 11.33 -1.98 11.66 -3 12 C-3.66 11.01 -4.32 10.02 -5 9 C-6.71502233 7.55876888 -6.71502233 7.55876888 -9 7 C-12.20898563 7.7913437 -12.20898563 7.7913437 -15 9 C-10.15966387 3.75630252 -10.15966387 3.75630252 -6 3 C-4.96875 2.46375 -3.9375 1.9275 -2.875 1.375 C-1.451875 0.694375 -1.451875 0.694375 0 0 Z " fill="#7448DF" transform="translate(472,254)"/>
<path d="M0 0 C0 0.66 0 1.32 0 2 C-0.99 2.33 -1.98 2.66 -3 3 C-3.33 3.99 -3.66 4.98 -4 6 C-6.0625 6.6875 -6.0625 6.6875 -8 7 C-8.95024979 10.69541586 -8.95024979 13.30458414 -8 17 C-10.31 15.02 -12.62 13.04 -15 11 C-14 7 -14 7 -11.34765625 5.078125 C-10.26355469 4.47484375 -9.17945312 3.8715625 -8.0625 3.25 C-6.98097656 2.63640625 -5.89945313 2.0228125 -4.78515625 1.390625 C-2 0 -2 0 0 0 Z " fill="#7448DF" transform="translate(96,336)"/>
<path d="M0 0 C0.99 0 1.98 0 3 0 C3.38800781 0.64453125 3.77601562 1.2890625 4.17578125 1.953125 C5.97481223 4.40550187 5.97481223 4.40550187 9.79296875 4.609375 C11.25706424 4.67562366 12.7221769 4.72184532 14.1875 4.75 C14.93708984 4.77964844 15.68667969 4.80929687 16.45898438 4.83984375 C18.30541307 4.9104079 20.15271261 4.95748476 22 5 C17.92777125 7.71481916 14.78275333 8.16230311 9.9375 8.25 C9.08027344 8.27578125 8.22304688 8.3015625 7.33984375 8.328125 C5 8 5 8 3.19140625 6.671875 C2 5 2 5 2 2 C1.34 2 0.68 2 0 2 C0 1.34 0 0.68 0 0 Z " fill="#7448DF" transform="translate(39,366)"/>
<path d="M0 0 C0.33 0 0.66 0 1 0 C1.27249655 6.8729686 0.8507267 13.60850813 0.125 20.4375 C0.04652832 21.21851074 -0.03194336 21.99952148 -0.11279297 22.80419922 C-0.53639372 26.55806617 -0.95163241 29.77253006 -3 33 C-3.20765141 21.90218565 -3.36066949 10.65578132 0 0 Z " fill="#7448DF" transform="translate(290,290)"/>
<path d="M0 0 C1.11375 0.3403125 1.11375 0.3403125 2.25 0.6875 C-0.225 4.1525 -0.225 4.1525 -2.75 7.6875 C-3.08 6.6975 -3.41 5.7075 -3.75 4.6875 C-7.71 6.6675 -7.71 6.6675 -11.75 8.6875 C-11.75 7.3675 -11.75 6.0475 -11.75 4.6875 C-11.0075 4.419375 -10.265 4.15125 -9.5 3.875 C-6.73116678 2.83654615 -6.73116678 2.83654615 -4.75 1 C-2.75 -0.3125 -2.75 -0.3125 0 0 Z " fill="#7448DF" transform="translate(431.75,278.3125)"/>
<path d="M0 0 C0 3.75265869 -1.1312249 5.07897326 -3.1875 8.1875 C-4.14076172 9.6415625 -4.14076172 9.6415625 -5.11328125 11.125 C-6.04720703 12.548125 -6.04720703 12.548125 -7 14 C-7.96269805 15.55981457 -8.92168253 17.12193466 -9.875 18.6875 C-10.57625 19.780625 -11.2775 20.87375 -12 22 C-12.33 22 -12.66 22 -13 22 C-13.4401757 17.47597193 -12.26180946 15.31983956 -9.625 11.6875 C-8.99851562 10.80449219 -8.37203125 9.92148437 -7.7265625 9.01171875 C-7.15679687 8.34785156 -6.58703125 7.68398438 -6 7 C-5.34 7 -4.68 7 -4 7 C-3.67 5.02 -3.34 3.04 -3 1 C-2.01 0.67 -1.02 0.34 0 0 Z " fill="#7448DF" transform="translate(470,265)"/>
<path d="M0 0 C1.65 0 3.3 0 5 0 C0.25 3.875 0.25 3.875 -2 5 C-1.01 8.96 -0.02 12.92 1 17 C-2 16 -2 16 -3.6875 12.8125 C-5.01535157 9.4652075 -5.26451861 6.61508773 -5 3 C-3.35 2.34 -1.7 1.68 0 1 C0 0.67 0 0.34 0 0 Z " fill="#7448DF" transform="translate(69,337)"/>
<path d="M0 0 C0.66 0 1.32 0 2 0 C2 1.65 2 3.3 2 5 C3.051875 4.79375 4.10375 4.5875 5.1875 4.375 C9.00613886 3.99939618 10.7352474 4.07955729 14 6 C14.33 6.99 14.66 7.98 15 9 C13.06177404 8.96694498 11.12414332 8.89750095 9.1875 8.8125 C8.10855469 8.77769531 7.02960938 8.74289062 5.91796875 8.70703125 C3 8 3 8 1.11328125 5.63671875 C0 3 0 3 0 0 Z " fill="#7448DF" transform="translate(136,302)"/>
<path d="M0 0 C0.66 0 1.32 0 2 0 C0.3003494 4.73474097 -2.13659027 8.96167111 -4.625 13.3125 C-5.04523438 14.05306641 -5.46546875 14.79363281 -5.8984375 15.55664062 C-6.92948495 17.37269011 -7.96436046 19.18656533 -9 21 C-9.33 21 -9.66 21 -10 21 C-10 19.02 -10 17.04 -10 15 C-9.34 15 -8.68 15 -8 15 C-7.67 13.35 -7.34 11.7 -7 10 C-6.01 9.67 -5.02 9.34 -4 9 C-4 8.01 -4 7.02 -4 6 C-3.34 6 -2.68 6 -2 6 C-2.33 5.01 -2.66 4.02 -3 3 C-2.01 3 -1.02 3 0 3 C0 2.01 0 1.02 0 0 Z " fill="#7448DF" transform="translate(448,299)"/>
<path d="M0 0 C0.99 0.495 0.99 0.495 2 1 C2 1.99 2 2.98 2 4 C2.66 4 3.32 4 4 4 C5.44074715 5.782129 6.80510649 7.62660276 8.125 9.5 C9.21167969 11.03140625 9.21167969 11.03140625 10.3203125 12.59375 C10.87460937 13.3878125 11.42890625 14.181875 12 15 C11.67 15.66 11.34 16.32 11 17 C10.34 16.67 9.68 16.34 9 16 C9 15.34 9 14.68 9 14 C8.39671875 13.92394531 7.7934375 13.84789062 7.171875 13.76953125 C4.23767778 12.72989662 3.68969512 11.4024806 2.25 8.6875 C1.82203125 7.90761719 1.3940625 7.12773437 0.953125 6.32421875 C0 4 0 4 0 0 Z " fill="#7448DF" transform="translate(293,326)"/>
<path d="M0 0 C0.33 0 0.66 0 1 0 C1.28761068 5.65634345 1.05235164 8.16710991 -2 13 C-2.50042146 16.08461971 -2.50042146 16.08461971 -2 19 C-0.62493901 20.87890434 -0.62493901 20.87890434 1 22 C0.34 22.99 -0.32 23.98 -1 25 C-5 19.06060606 -5 19.06060606 -5 14.75 C-3.65483142 9.70561782 -1.89072886 4.86313051 0 0 Z " fill="#7448DF" transform="translate(24,316)"/>
<path d="M0 0 C2.93980274 0.20338258 3.89674173 0.88897638 5.921875 3.06640625 C6.52515625 3.89011719 7.1284375 4.71382812 7.75 5.5625 C8.36359375 6.38878906 8.9771875 7.21507812 9.609375 8.06640625 C10.06828125 8.70449219 10.5271875 9.34257812 11 10 C10.67 10.66 10.34 11.32 10 12 C9.01 11.67 8.02 11.34 7 11 C7 9.68 7 8.36 7 7 C4.525 6.01 4.525 6.01 2 5 C2 4.34 2 3.68 2 3 C1.4225 3.350625 0.845 3.70125 0.25 4.0625 C-2.35801776 5.14917407 -3.39417629 4.93065133 -6 4 C-5.01 3.67 -4.02 3.34 -3 3 C-2.525625 2.46375 -2.05125 1.9275 -1.5625 1.375 C-0.7890625 0.694375 -0.7890625 0.694375 0 0 Z " fill="#7448DF" transform="translate(208,154)"/>
<path d="M0 0 C6.00477279 0.64916463 11.400781 2.85795003 17 5 C17 5.66 17 6.32 17 7 C10.80759538 6.31195504 4.98044406 4.71951285 -1 3 C-0.67 2.01 -0.34 1.02 0 0 Z " fill="#7448DF" transform="translate(322,312)"/>
<path d="M0 0 C-0.33 0.99 -0.66 1.98 -1 3 C-2.32 2.67 -3.64 2.34 -5 2 C-5.433125 2.9590625 -5.433125 2.9590625 -5.875 3.9375 C-7 6 -7 6 -9 7 C-9 6.34 -9 5.68 -9 5 C-9.9075 5.350625 -10.815 5.70125 -11.75 6.0625 C-15.00591313 7.00170571 -15.92749994 6.95514676 -19 6 C-16.58967749 4.79783666 -14.17316521 3.61325022 -11.75 2.4375 C-11.06808594 2.09525391 -10.38617188 1.75300781 -9.68359375 1.40039062 C-5.97831091 -0.38030356 -3.92128522 -1.3058334 0 0 Z " fill="#7448DF" transform="translate(263,126)"/>
<path d="M0 0 C0.33 0 0.66 0 1 0 C1 2.64 1 5.28 1 8 C0.34 8 -0.32 8 -1 8 C-1 9.65 -1 11.3 -1 13 C-1.99 13.33 -2.98 13.66 -4 14 C-4 15.98 -4 17.96 -4 20 C-4.99 20 -5.98 20 -7 20 C-5.27068234 12.99102311 -3.16032658 6.49711809 0 0 Z " fill="#7448DF" transform="translate(32,296)"/>
<path d="M0 0 C0 1.98 0 3.96 0 6 C-0.66 6 -1.32 6 -2 6 C-2.33 7.32 -2.66 8.64 -3 10 C-3.33 8.68 -3.66 7.36 -4 6 C-6.97 5.505 -6.97 5.505 -10 5 C-10 4.34 -10 3.68 -10 3 C-8.52144705 2.49818809 -7.04213942 1.99859924 -5.5625 1.5 C-4.73878906 1.2215625 -3.91507812 0.943125 -3.06640625 0.65625 C-1 0 -1 0 0 0 Z " fill="#7448DF" transform="translate(429,262)"/>
<path d="M0 0 C0.33 0.66 0.66 1.32 1 2 C1.99 2.33 2.98 2.66 4 3 C4 6.3 4 9.6 4 13 C4.99 13.33 5.98 13.66 7 14 C7 15.65 7 17.3 7 19 C6.01 19 5.02 19 4 19 C3.32900016 16.39688008 2.66304662 13.79264602 2 11.1875 C1.80921875 10.44951172 1.6184375 9.71152344 1.421875 8.95117188 C0.64737086 5.89464659 0 3.16626522 0 0 Z " fill="#7448DF" transform="translate(301,291)"/>
<path d="M0 0 C2.64752004 2.57784846 4.94432065 4.91648098 7 8 C7 9.65 7 11.3 7 13 C3.04 12.67 -0.92 12.34 -5 12 C-5 11.67 -5 11.34 -5 11 C-1.7 11 1.6 11 5 11 C4.175 10.113125 3.35 9.22625 2.5 8.3125 C0.53900524 5.98692593 0.02740522 5.25212806 -0.3125 2.125 C-0.209375 1.42375 -0.10625 0.7225 0 0 Z " fill="#7448DF" transform="translate(314,355)"/>
<path d="M0 0 C0.66 0 1.32 0 2 0 C2 0.66 2 1.32 2 2 C2.99 2.33 3.98 2.66 5 3 C5 3.99 5 4.98 5 6 C5.66 5.34 6.32 4.68 7 4 C7.99 4.33 8.98 4.66 10 5 C9.835 5.721875 9.67 6.44375 9.5 7.1875 C9.02412881 9.86427545 8.922557 12.28949487 9 15 C4.95808535 10.50898372 2.56325559 5.41015011 0 0 Z " fill="#7448DF" transform="translate(30,351)"/>
<path d="M0 0 C1 3 1 3 0 6 C0.99 6.66 1.98 7.32 3 8 C-0.44069624 10.29379749 -1.72290301 11 -6 11 C-5.34727108 6.75726205 -3.0234967 3.0234967 0 0 Z " fill="#7448DF" transform="translate(25,271)"/>
<path d="M0 0 C2.39531135 3.1198191 4.60117791 6.33073142 6.75 9.625 C7.38421875 10.58664063 8.0184375 11.54828125 8.671875 12.5390625 C9.11015625 13.35117188 9.5484375 14.16328125 10 15 C9.67 15.66 9.34 16.32 9 17 C7.68 16.34 6.36 15.68 5 15 C5 13.68 5 12.36 5 11 C4.01 10.67 3.02 10.34 2 10 C-0.28341107 6.75515269 -0.17615457 3.87540045 0 0 Z " fill="#7448DF" transform="translate(391,232)"/>
<path d="M0 0 C0 0.66 0 1.32 0 2 C-6.4679487 6.43516482 -12.32858684 7.43395398 -20 8 C-16.64309635 5.76206424 -13.1660716 4.34949662 -9.4375 2.875 C-8.75236328 2.59785156 -8.06722656 2.32070312 -7.36132812 2.03515625 C-2.2533867 0 -2.2533867 0 0 0 Z " fill="#7448DF" transform="translate(181,166)"/>
<path d="M0 0 C2.50014115 3.74095194 1.90042304 6.44209421 1.125 10.75 C0.81949219 12.50570313 0.81949219 12.50570313 0.5078125 14.296875 C0.25644531 15.63492187 0.25644531 15.63492187 0 17 C-1.32 17 -2.64 17 -4 17 C-4.75 15.3125 -4.75 15.3125 -5 13 C-4.071875 11.88625 -4.071875 11.88625 -3.125 10.75 C-0.28386323 7.07323477 -0.31068193 4.58255848 0 0 Z " fill="#7448DF" transform="translate(401,249)"/>
<path d="M0 0 C1.343231 2.686462 0.67960047 3.69297114 -0.25 6.5 C-0.62898438 7.69109375 -0.62898438 7.69109375 -1.015625 8.90625 C-2 11 -2 11 -5 13 C-5.99 13 -6.98 13 -8 13 C-8 12.34 -8 11.68 -8 11 C-7.34 11 -6.68 11 -6 11 C-5.83177734 10.12601563 -5.83177734 10.12601563 -5.66015625 9.234375 C-4.93999124 6.79689343 -3.95620605 5.2749414 -2.4375 3.25 C-1.98246094 2.63640625 -1.52742188 2.0228125 -1.05859375 1.390625 C-0.70925781 0.93171875 -0.35992187 0.4728125 0 0 Z " fill="#7448DF" transform="translate(49,235)"/>
<path d="M0 0 C0.33 0 0.66 0 1 0 C1.8368335 3.62420124 2.66887234 7.24948637 3.5 10.875 C3.73847656 11.90753906 3.97695313 12.94007813 4.22265625 14.00390625 C4.44824219 14.99003906 4.67382812 15.97617188 4.90625 16.9921875 C5.11572266 17.90339355 5.32519531 18.81459961 5.54101562 19.75341797 C6 22 6 22 6 24 C5.34 24 4.68 24 4 24 C0.28956523 16.25648396 0.29690204 8.43611322 0 0 Z " fill="#7448DF" transform="translate(352,190)"/>
<path d="M0 0 C4.29 0.33 8.58 0.66 13 1 C13 1.33 13 1.66 13 2 C14.134375 2.28875 15.26875 2.5775 16.4375 2.875 C17.613125 3.24625 18.78875 3.6175 20 4 C20.33 4.66 20.66 5.32 21 6 C16.01155691 5.3900874 11.39844654 4.36525565 6.5625 2.9375 C5.32628906 2.57527344 4.09007812 2.21304687 2.81640625 1.83984375 C1.88699219 1.56269531 0.95757812 1.28554688 0 1 C0 0.67 0 0.34 0 0 Z " fill="#7448DF" transform="translate(353,323)"/>
<path d="M0 0 C0.99 0.66 1.98 1.32 3 2 C3 2.66 3 3.32 3 4 C3.66 4 4.32 4 5 4 C5 4.99 5 5.98 5 7 C-0.28 7 -5.56 7 -11 7 C-11 6.67 -11 6.34 -11 6 C-7.7 5.67 -4.4 5.34 -1 5 C-0.67 3.35 -0.34 1.7 0 0 Z " fill="#7448DF" transform="translate(251,357)"/>
<path d="M0 0 C-0.556875 0.2475 -1.11375 0.495 -1.6875 0.75 C-4.12358711 1.97197763 -4.12358711 1.97197763 -6.4375 4 C-8.94177918 5.95455936 -11.04597125 6.91167362 -14 8 C-14.99 8.66 -15.98 9.32 -17 10 C-17.66 9.34 -18.32 8.68 -19 8 C-13.375 4 -13.375 4 -10 4 C-10 3.34 -10 2.68 -10 2 C-6.49223216 0.39644899 -3.85645121 -0.22036864 0 0 Z " fill="#7448DF" transform="translate(254,131)"/>
<path d="M0 0 C2.10448938 0.14109986 4.2085877 0.28804175 6.3125 0.4375 C7.48425781 0.51871094 8.65601563 0.59992188 9.86328125 0.68359375 C13 1 13 1 16 2 C16 2.66 16 3.32 16 4 C11.48382401 4.07654536 7.40914783 4.10228696 3 3 C3 2.34 3 1.68 3 1 C2.01 0.67 1.02 0.34 0 0 Z " fill="#7448DF" transform="translate(157,311)"/>
<path d="M0 0 C1.32 0.66 2.64 1.32 4 2 C4 2.66 4 3.32 4 4 C4.99 4 5.98 4 7 4 C7 5.98 7 7.96 7 10 C6.34 10 5.68 10 5 10 C5 9.34 5 8.68 5 8 C4.34 8 3.68 8 3 8 C0.8125 5.6875 0.8125 5.6875 -1 3 C-0.67 2.01 -0.34 1.02 0 0 Z " fill="#7448DF" transform="translate(269,354)"/>
<path d="M0 0 C0 0.99 0 1.98 0 3 C-5.0302076 2.47462276 -10.01885239 1.89405214 -15 1 C-9.18601938 -2.11463247 -6.41361526 -2.09675884 0 0 Z " fill="#7448DF" transform="translate(184,315)"/>
<path d="M0 0 C0.66 0 1.32 0 2 0 C1.52467862 5.07009471 -1.04362294 8.97493258 -4 13 C-4.33 13 -4.66 13 -5 13 C-5.125 6.25 -5.125 6.25 -4 4 C-2.68 4 -1.36 4 0 4 C0 2.68 0 1.36 0 0 Z " fill="#7448DF" transform="translate(427,268)"/>
<path d="M0 0 C-5.75 4 -5.75 4 -8 4 C-8.33 4.66 -8.66 5.32 -9 6 C-11.48412207 6.82804069 -13.35220307 7 -16 7 C-12.65182323 3.06096851 -5.20118162 -2.60059081 0 0 Z " fill="#7448DF" transform="translate(474,253)"/>
<path d="M0 0 C0 0.66 0 1.32 0 2 C-1.4160599 2.79275148 -2.83287553 3.58415312 -4.25 4.375 C-5.03890625 4.81585938 -5.8278125 5.25671875 -6.640625 5.7109375 C-7.80851563 6.34902344 -7.80851563 6.34902344 -9 7 C-9.67546875 7.40476563 -10.3509375 7.80953125 -11.046875 8.2265625 C-13.46134402 9.18269223 -14.56233825 8.71177695 -17 8 C-14.54429825 6.66161267 -12.08570084 5.32913768 -9.625 4 C-8.92632812 3.6184375 -8.22765625 3.236875 -7.5078125 2.84375 C-2.2265625 0 -2.2265625 0 0 0 Z " fill="#7448DF" transform="translate(244,133)"/>
<path d="M0 0 C3.43927579 1.2419607 6.25207819 2.55740284 9 5 C9 5.66 9 6.32 9 7 C7.35 7.33 5.7 7.66 4 8 C3.67 7.01 3.34 6.02 3 5 C2.34 4.67 1.68 4.34 1 4 C0.375 1.9375 0.375 1.9375 0 0 Z " fill="#7448DF" transform="translate(119,357)"/>
<path d="M0 0 C0.33 0 0.66 0 1 0 C1.22595954 3.10314787 1.42770896 6.20740807 1.625 9.3125 C1.68945312 10.19357422 1.75390625 11.07464844 1.8203125 11.98242188 C1.871875 12.82998047 1.9234375 13.67753906 1.9765625 14.55078125 C2.02893066 15.33106689 2.08129883 16.11135254 2.13525391 16.9152832 C2 19 2 19 0 22 C-0.36279456 20.71073008 -0.71496698 19.41846728 -1.0625 18.125 C-1.25972656 17.40570313 -1.45695312 16.68640625 -1.66015625 15.9453125 C-2 14 -2 14 -1 12 C-0.77141886 9.9625237 -0.58975722 7.91959697 -0.4375 5.875 C-0.35371094 4.77929688 -0.26992187 3.68359375 -0.18359375 2.5546875 C-0.12300781 1.71164062 -0.06242187 0.86859375 0 0 Z " fill="#7448DF" transform="translate(116,336)"/>
<path d="M0 0 C4.56048012 3.61251516 8.01665146 6.98797445 11 12 C9.35 11.67 7.7 11.34 6 11 C5.67 9.35 5.34 7.7 5 6 C3.68 6 2.36 6 1 6 C0.67 4.02 0.34 2.04 0 0 Z " fill="#7448DF" transform="translate(240,345)"/>
<path d="M0 0 C0.99 0.33 1.98 0.66 3 1 C0.36 5.29 -2.28 9.58 -5 14 C-5.33 12.68 -5.66 11.36 -6 10 C-5.34 10 -4.68 10 -4 10 C-3.896875 9.0925 -3.79375 8.185 -3.6875 7.25 C-2.99585051 3.98038425 -2.17865079 2.46282263 0 0 Z " fill="#7448DF" transform="translate(435,320)"/>
<path d="M0 0 C0.33 0.66 0.66 1.32 1 2 C0.34 2 -0.32 2 -1 2 C-1 2.99 -1 3.98 -1 5 C-1.99 5.495 -1.99 5.495 -3 6 C-3 6.66 -3 7.32 -3 8 C-3.66 8 -4.32 8 -5 8 C-5 8.99 -5 9.98 -5 11 C-5.66 11 -6.32 11 -7 11 C-6.38976378 4.53149606 -6.38976378 4.53149606 -4.625 2.125 C-3 1 -3 1 0 0 Z " fill="#7448DF" transform="translate(449,297)"/>
<path d="M0 0 C0.93423645 3.01031744 1.04449911 3.86650268 0 7 C0.66 7.33 1.32 7.66 2 8 C2 9.65 2 11.3 2 13 C1.67 12.34 1.34 11.68 1 11 C0.01 10.67 -0.98 10.34 -2 10 C-2.33 7.69 -2.66 5.38 -3 3 C-2.34 3 -1.68 3 -1 3 C-0.67 2.01 -0.34 1.02 0 0 Z " fill="#7448DF" transform="translate(44,271)"/>
<path d="M0 0 C0.33 0.66 0.66 1.32 1 2 C0.29296875 3.91015625 0.29296875 3.91015625 -0.8125 6.0625 C-1.16957031 6.77535156 -1.52664062 7.48820313 -1.89453125 8.22265625 C-3 10 -3 10 -5 11 C-5.65213292 13.02463255 -5.65213292 13.02463255 -6 15 C-6.99 15 -7.98 15 -9 15 C-7.61219205 11.10993227 -5.7847773 8.03441292 -3.375 4.6875 C-2.74335937 3.80449219 -2.11171875 2.92148438 -1.4609375 2.01171875 C-0.97882812 1.34785156 -0.49671875 0.68398437 0 0 Z " fill="#7448DF" transform="translate(40,248)"/>
<path d="M0 0 C0.66 0.33 1.32 0.66 2 1 C1.01 2.485 1.01 2.485 0 4 C1.32 4.66 2.64 5.32 4 6 C3 7 3 7 -0.375 7.25 C-4 7 -4 7 -5.9375 5.5625 C-7 4 -7 4 -7 3 C-5.35 3 -3.7 3 -2 3 C-2 2.34 -2 1.68 -2 1 C-1.34 0.67 -0.68 0.34 0 0 Z " fill="#7448DF" transform="translate(116,193)"/>
<path d="M0 0 C1.32 1.32 2.64 2.64 4 4 C3.34 4 2.68 4 2 4 C1.67 9.28 1.34 14.56 1 20 C0.67 20 0.34 20 0 20 C-0.19594676 16.85463232 -0.3803401 13.70869386 -0.5625 10.5625 C-0.61857422 9.66466797 -0.67464844 8.76683594 -0.73242188 7.84179688 C-0.78076172 6.98779297 -0.82910156 6.13378906 -0.87890625 5.25390625 C-0.9260376 4.46314697 -0.97316895 3.6723877 -1.02172852 2.85766602 C-1 1 -1 1 0 0 Z " fill="#7448DF" transform="translate(215,319)"/>
<path d="M0 0 C2.94721162 2.74395564 5.19168608 5.38337216 7 9 C6.67 9.66 6.34 10.32 6 11 C5.34 11 4.68 11 4 11 C4 10.34 4 9.68 4 9 C3.01 8.67 2.02 8.34 1 8 C0.67 5.36 0.34 2.72 0 0 Z " fill="#7448DF" transform="translate(379,214)"/>
<path d="M0 0 C1.20220203 3.53094302 0.79532349 6.12898982 0.0625 9.75 C-0.13214844 10.73484375 -0.32679688 11.7196875 -0.52734375 12.734375 C-0.68332031 13.48203125 -0.83929688 14.2296875 -1 15 C-1.99 15.33 -2.98 15.66 -4 16 C-3.27275406 10.47293087 -1.66554027 5.30039859 0 0 Z " fill="#7448DF" transform="translate(362,196)"/>
<path d="M0 0 C4.67105792 1.55701931 8.08705685 4.08447373 12 7 C9 8 9 8 6.51953125 7.00390625 C5.62621094 6.52824219 4.73289062 6.05257812 3.8125 5.5625 C2.91144531 5.08941406 2.01039063 4.61632812 1.08203125 4.12890625 C0.39496094 3.75636719 -0.29210937 3.38382813 -1 3 C-0.67 2.01 -0.34 1.02 0 0 Z " fill="#7448DF" transform="translate(318,166)"/>
<path d="M0 0 C0.99 0 1.98 0 3 0 C2.34 6.6 1.68 13.2 1 20 C0.67 20 0.34 20 0 20 C0 13.4 0 6.8 0 0 Z " fill="#7448DF" transform="translate(225,142)"/>
<path d="M0 0 C0.66 0 1.32 0 2 0 C2.66 1.32 3.32 2.64 4 4 C2.38405168 6.04119788 0.7143618 8.04072937 -1 10 C-1.66 10 -2.32 10 -3 10 C-3 8.68 -3 7.36 -3 6 C-2.34 5.67 -1.68 5.34 -1 5 C-0.34444881 2.47266765 -0.34444881 2.47266765 0 0 Z " fill="#7448DF" transform="translate(28,310)"/>
<path d="M0 0 C2 1.4375 2 1.4375 4 4 C4.35442445 7.02824418 4.23347235 9.96485939 4 13 C3.34 12.01 2.68 11.02 2 10 C1.01 10.495 1.01 10.495 0 11 C0 7.37 0 3.74 0 0 Z " fill="#7448DF" transform="translate(294,264)"/>
<path d="M0 0 C0.33 0 0.66 0 1 0 C1.46656194 9.86692101 1.46656194 9.86692101 -0.3125 14.1875 C-0.869375 14.785625 -1.42625 15.38375 -2 16 C-2.99 16 -3.98 16 -5 16 C-4.67 14.68 -4.34 13.36 -4 12 C-3.01 12 -2.02 12 -1 12 C-0.67 8.04 -0.34 4.08 0 0 Z " fill="#7448DF" transform="translate(126,293)"/>
<path d="M0 0 C1.17578125 1.671875 1.17578125 1.671875 2 4 C0.91796875 6.578125 0.91796875 6.578125 -0.8125 9.25 C-1.37582031 10.14203125 -1.93914062 11.0340625 -2.51953125 11.953125 C-3.00808594 12.62859375 -3.49664062 13.3040625 -4 14 C-4.33 14 -4.66 14 -5 14 C-5.25532751 10.93606987 -5.21861333 9.36766788 -3.625 6.6875 C-2.820625 5.8521875 -2.820625 5.8521875 -2 5 C-1.34 5 -0.68 5 0 5 C0 3.35 0 1.7 0 0 Z " fill="#7448DF" transform="translate(455,285)"/>
<path d="M0 0 C1.74627478 2.61941217 2.38722388 4.03824877 3 7 C2.34 7 1.68 7 1 7 C1 7.99 1 8.98 1 10 C-0.32 10 -1.64 10 -3 10 C-2.01 6.7 -1.02 3.4 0 0 Z " fill="#7448DF" transform="translate(40,275)"/>
<path d="M0 0 C3.63 2.31 7.26 4.62 11 7 C7.79937313 8.60031344 5.27728194 7.03173691 2 6 C2 5.34 2 4.68 2 4 C1.34 3.67 0.68 3.34 0 3 C0 2.01 0 1.02 0 0 Z " fill="#7448DF" transform="translate(272,133)"/>
<path d="M0 0 C1.32 0 2.64 0 4 0 C3.34 1.32 2.68 2.64 2 4 C1.34 4 0.68 4 0 4 C0 4.99 0 5.98 0 7 C-1.32 7.33 -2.64 7.66 -4 8 C-2.25 2.25 -2.25 2.25 0 0 Z " fill="#7448DF" transform="translate(30,263)"/>
<path d="M0 0 C4.28477792 2.30718811 7.72291137 4.32966073 11 8 C3 6 3 6 0 3 C0 2.01 0 1.02 0 0 Z " fill="#7448DF" transform="translate(303,155)"/>
<path d="M0 0 C1.32 0 2.64 0 4 0 C4.02578125 0.69867188 4.0515625 1.39734375 4.078125 2.1171875 C4.13484375 3.02726562 4.1915625 3.93734375 4.25 4.875 C4.29640625 5.77992188 4.3428125 6.68484375 4.390625 7.6171875 C4.75611148 10.17110544 4.75611148 10.17110544 7.046875 11.3203125 C7.69140625 11.54460937 8.3359375 11.76890625 9 12 C7.02 12 5.04 12 3 12 C2.31510748 9.68848773 2.0032854 7.86529862 2.0625 5.4375 C2.21001775 2.73740376 2.21001775 2.73740376 0 0 Z " fill="#7448DF" transform="translate(92,357)"/>
<path d="M0 0 C0.33 0.66 0.66 1.32 1 2 C1.61875 2.28875 2.2375 2.5775 2.875 2.875 C5.42377722 4.22435264 6.56636061 5.50999474 8 8 C7.67 8.99 7.34 9.98 7 11 C6.67 10.01 6.34 9.02 6 8 C4.67532254 7.3162955 3.34136367 6.65035814 2 6 C0 3 0 3 0 0 Z " fill="#7448DF" transform="translate(235,318)"/>
<path d="M0 0 C0.33 0 0.66 0 1 0 C1.33 2.31 1.66 4.62 2 7 C2.66 7 3.32 7 4 7 C4 6.34 4 5.68 4 5 C4.99 4.67 5.98 4.34 7 4 C6.34 5.65 5.68 7.3 5 9 C3.68 9 2.36 9 1 9 C0.34 8.34 -0.32 7.68 -1 7 C-0.625 3.375 -0.625 3.375 0 0 Z " fill="#7448DF" transform="translate(354,207)"/>
<path d="M0 0 C-6.76923077 4.76923077 -6.76923077 4.76923077 -10 5 C-10.66 4.34 -11.32 3.68 -12 3 C-10.5682384 2.30062798 -9.12932968 1.61587282 -7.6875 0.9375 C-6.48673828 0.36322266 -6.48673828 0.36322266 -5.26171875 -0.22265625 C-3 -1 -3 -1 0 0 Z " fill="#7448DF" transform="translate(139,186)"/>
<path d="M0 0 C0.99 0.33 1.98 0.66 3 1 C2.34 2.32 1.68 3.64 1 5 C-1.64 5 -4.28 5 -7 5 C-7.33 4.34 -7.66 3.68 -8 3 C-6.865625 2.690625 -5.73125 2.38125 -4.5625 2.0625 C-1.21224901 1.37075469 -1.21224901 1.37075469 0 0 Z " fill="#7448DF" transform="translate(397,329)"/>
<path d="M0 0 C0.99 0.33 1.98 0.66 3 1 C3 2.65 3 4.3 3 6 C2.67 6 2.34 6 2 6 C1.67 9.63 1.34 13.26 1 17 C0.67 17 0.34 17 0 17 C0 11.39 0 5.78 0 0 Z " fill="#7448DF" transform="translate(216,322)"/>
<path d="M0 0 C1.43739513 -0.02712066 2.87493863 -0.04645067 4.3125 -0.0625 C5.51326172 -0.07990234 5.51326172 -0.07990234 6.73828125 -0.09765625 C9 0 9 0 12 1 C12 1.66 12 2.32 12 3 C12.66 3.33 13.32 3.66 14 4 C9.23649415 3.28547412 4.65798604 2.20465156 0 1 C0 0.67 0 0.34 0 0 Z " fill="#7448DF" transform="translate(339,319)"/>
<path d="M0 0 C-1.32 0.33 -2.64 0.66 -4 1 C-4 2.32 -4 3.64 -4 5 C-5.0828125 4.7525 -5.0828125 4.7525 -6.1875 4.5 C-8.86427545 4.02412881 -11.28949487 3.922557 -14 4 C-11.36711169 2.57385216 -8.65544851 1.41456868 -5.875 0.3125 C-5.19179688 0.04050781 -4.50859375 -0.23148437 -3.8046875 -0.51171875 C-2 -1 -2 -1 0 0 Z " fill="#7448DF" transform="translate(423,264)"/>
<path d="M0 0 C0.99 0.33 1.98 0.66 3 1 C1.8141763 4.37503669 0.72426311 6.64722731 -2 9 C-2.33 6.69 -2.66 4.38 -3 2 C-2.01 1.34 -1.02 0.68 0 0 Z " fill="#7448DF" transform="translate(479,246)"/>
<path d="M0 0 C0.75 1.6875 0.75 1.6875 1 4 C-0.8125 6.75 -0.8125 6.75 -3 9 C-3.66 9 -4.32 9 -5 9 C-5 9.66 -5 10.32 -5 11 C-5.66 10.67 -6.32 10.34 -7 10 C-6.02223933 8.51990357 -5.0427506 7.04094856 -4.0625 5.5625 C-3.51722656 4.73878906 -2.97195312 3.91507813 -2.41015625 3.06640625 C-1 1 -1 1 0 0 Z " fill="#7448DF" transform="translate(63,215)"/>
<path d="M0 0 C0.66 0 1.32 0 2 0 C2.33 1.32 2.66 2.64 3 4 C4.32 4.33 5.64 4.66 7 5 C5.58376784 5.05447047 4.16691809 5.09300508 2.75 5.125 C1.96109375 5.14820313 1.1721875 5.17140625 0.359375 5.1953125 C-2.20731941 4.9828378 -3.7916067 4.28654105 -6 3 C-4.02 3 -2.04 3 0 3 C0 2.01 0 1.02 0 0 Z " fill="#7448DF" transform="translate(398,331)"/>
<path d="M0 0 C0.66 0.33 1.32 0.66 2 1 C1.67 1.61875 1.34 2.2375 1 2.875 C-0.14193235 4.91018344 -0.14193235 4.91018344 0 7 C-2.64 7 -5.28 7 -8 7 C-8 6.34 -8 5.68 -8 5 C-6.3203125 3.67578125 -6.3203125 3.67578125 -4.125 2.3125 C-3.40570313 1.85488281 -2.68640625 1.39726562 -1.9453125 0.92578125 C-1.30335938 0.62027344 -0.66140625 0.31476563 0 0 Z " fill="#7448DF" transform="translate(452,263)"/>
<path d="M0 0 C1.125 1.6875 1.125 1.6875 2 4 C1.22283171 6.51085141 0.17153984 8.65692033 -1 11 C-1.99 11.495 -1.99 11.495 -3 12 C-2.88541307 10.56163249 -2.75790884 9.12429034 -2.625 7.6875 C-2.55539062 6.88699219 -2.48578125 6.08648437 -2.4140625 5.26171875 C-2 3 -2 3 0 0 Z " fill="#7448DF" transform="translate(365,192)"/>
<path d="M0 0 C-0.33 1.32 -0.66 2.64 -1 4 C-3.3125 4.625 -3.3125 4.625 -6 5 C-6.99 4.34 -7.98 3.68 -9 3 C-3.375 0 -3.375 0 0 0 Z " fill="#7448DF" transform="translate(123,190)"/>
<path d="M0 0 C0.99 0.33 1.98 0.66 3 1 C-0.01887244 4.48331435 -2.56909529 5.79157144 -7 7 C-7.33 6.01 -7.66 5.02 -8 4 C-7.236875 3.896875 -6.47375 3.79375 -5.6875 3.6875 C-2.82940576 2.95635961 -1.84257115 2.23048087 0 0 Z " fill="#7448DF" transform="translate(117,309)"/>
<path d="M0 0 C2.31 0.33 4.62 0.66 7 1 C6.67 1.66 6.34 2.32 6 3 C5.01 3.33 4.02 3.66 3 4 C1.33066942 4.6599679 -0.3364521 5.32558869 -2 6 C-1.49396008 3.83125748 -1.00016187 2.00032373 0 0 Z " fill="#7448DF" transform="translate(115,307)"/>
<path d="M0 0 C3.25543229 0.34879632 4.01873107 1.02133261 6.25 3.5625 C6.8275 4.366875 7.405 5.17125 8 6 C5.21788056 5.62403791 3.4120716 5.32681541 1.1875 3.5625 C0 2 0 2 0 0 Z " fill="#7448DF" transform="translate(231,338)"/>
<path d="M0 0 C3.375 0.3125 3.375 0.3125 7 1 C7.66 1.99 8.32 2.98 9 4 C8.67 4.99 8.34 5.98 8 7 C8 6.34 8 5.68 8 5 C6.8553125 4.5978125 6.8553125 4.5978125 5.6875 4.1875 C3.12619116 3.05575888 1.80307062 2.08776599 0 0 Z " fill="#7448DF" transform="translate(369,261)"/>
<path d="M0 0 C3.73487777 0.4979837 5.81237635 0.87491756 9 3 C9 3.66 9 4.32 9 5 C7.35 5 5.7 5 4 5 C4 4.34 4 3.68 4 3 C3.34 3 2.68 3 2 3 C2 2.34 2 1.68 2 1 C1.34 0.67 0.68 0.34 0 0 Z " fill="#7448DF" transform="translate(327,174)"/>
<path d="M0 0 C2.34545328 2.34545328 2.95508888 3.95985838 3.09765625 7.26171875 C3.08605469 8.06222656 3.07445312 8.86273438 3.0625 9.6875 C3.05347656 10.49574219 3.04445313 11.30398438 3.03515625 12.13671875 C3.02355469 12.75160156 3.01195312 13.36648438 3 14 C2.67 14 2.34 14 2 14 C0.66416101 9.15758367 -0.25328119 5.06562383 0 0 Z " fill="#7448DF" transform="translate(298,277)"/>
<path d="M0 0 C2.31 0 4.62 0 7 0 C7 0.33 7 0.66 7 1 C5.35 1 3.7 1 2 1 C2.66 3.31 3.32 5.62 4 8 C3.01 7.67 2.02 7.34 1 7 C0.67 4.69 0.34 2.38 0 0 Z " fill="#7448DF" transform="translate(376,210)"/>
<path d="M0 0 C-0.99 1.485 -0.99 1.485 -2 3 C-5.625 3.1875 -5.625 3.1875 -9 3 C-9.33 3.66 -9.66 4.32 -10 5 C-10.66 4.34 -11.32 3.68 -12 3 C-10.3789897 2.30314502 -8.75303934 1.61777139 -7.125 0.9375 C-6.22007813 0.55464844 -5.31515625 0.17179688 -4.3828125 -0.22265625 C-2 -1 -2 -1 0 0 Z " fill="#7448DF" transform="translate(93,203)"/>
<path d="M0 0 C0.66 0 1.32 0 2 0 C2.33 0.66 2.66 1.32 3 2 C6.02934491 2.65772428 6.02934491 2.65772428 9 3 C8.34 4.65 7.68 6.3 7 8 C1.125 3.375 1.125 3.375 0 0 Z " fill="#7448DF" transform="translate(256,343)"/>
<path d="M0 0 C0.33 0 0.66 0 1 0 C1.36923077 7.50769231 1.36923077 7.50769231 -0.5 10 C-0.995 10.33 -1.49 10.66 -2 11 C-2.19622241 6.78121808 -1.80230168 3.82989106 0 0 Z " fill="#7448DF" transform="translate(24,316)"/>
<path d="M0 0 C0.33 0 0.66 0 1 0 C0.56179109 4.55737263 0.14958831 7.57653445 -3 11 C-3 9.02 -3 7.04 -3 5 C-2.34 5 -1.68 5 -1 5 C-0.67 3.35 -0.34 1.7 0 0 Z " fill="#7448DF" transform="translate(441,309)"/>
<path d="M0 0 C0.66 0 1.32 0 2 0 C3.99785435 4.1205746 4.17835515 7.45194365 4 12 C1.57869669 9.57869669 1.47159496 8.19888623 0.875 4.875 C0.70742187 3.96492188 0.53984375 3.05484375 0.3671875 2.1171875 C0.24601563 1.41851562 0.12484375 0.71984375 0 0 Z " fill="#7448DF" transform="translate(132,288)"/>
<path d="M0 0 C0.99 0.33 1.98 0.66 3 1 C3.33 4.63 3.66 8.26 4 12 C0.49718958 7.32958611 0.4655008 5.58600962 0 0 Z " fill="#7448DF" transform="translate(297,269)"/>
<path d="M0 0 C0.66 0 1.32 0 2 0 C2 0.66 2 1.32 2 2 C2.99 2.33 3.98 2.66 5 3 C4.67 4.32 4.34 5.64 4 7 C3.67 6.34 3.34 5.68 3 5 C0.97536745 4.34786708 0.97536745 4.34786708 -1 4 C-0.67 2.68 -0.34 1.36 0 0 Z " fill="#7448DF" transform="translate(65,351)"/>
<path d="M0 0 C0.99 0.495 0.99 0.495 2 1 C2 1.66 2 2.32 2 3 C3.98 2.67 5.96 2.34 8 2 C7.67 2.99 7.34 3.98 7 5 C4.69 5 2.38 5 0 5 C0 3.35 0 1.7 0 0 Z " fill="#7448DF" transform="translate(401,266)"/>
<path d="M0 0 C1.80330533 3.60661066 2.46599103 6.08393425 3 10 C2.01 9.67 1.02 9.34 0 9 C0 6.03 0 3.06 0 0 Z " fill="#7448DF" transform="translate(70,354)"/>
<path d="M0 0 C1.9375 0.6875 1.9375 0.6875 4 2 C4.75 4.625 4.75 4.625 5 7 C4.34 7 3.68 7 3 7 C3 6.34 3 5.68 3 5 C2.01 4.67 1.02 4.34 0 4 C0 2.68 0 1.36 0 0 Z " fill="#7448DF" transform="translate(310,351)"/>
<path d="M0 0 C0.66 0.33 1.32 0.66 2 1 C1.01 3.31 0.02 5.62 -1 8 C-1.99 7.34 -2.98 6.68 -4 6 C-3.6875 4.125 -3.6875 4.125 -3 2 C-2.01 1.34 -1.02 0.68 0 0 Z " fill="#7448DF" transform="translate(85,341)"/>
<path d="M0 0 C1.64826111 2.96687001 2.44271087 5.65626525 3 9 C1 7.8125 1 7.8125 -1 6 C-1.3125 3.375 -1.3125 3.375 -1 1 C-0.67 0.67 -0.34 0.34 0 0 Z " fill="#7448DF" transform="translate(85,344)"/>
<path d="M0 0 C1.65 1.65 3.3 3.3 5 5 C4.67 5.66 4.34 6.32 4 7 C3.34 6.67 2.68 6.34 2 6 C2 5.34 2 4.68 2 4 C0.68 3.67 -0.64 3.34 -2 3 C-1 1 -1 1 0 0 Z " fill="#7448DF" transform="translate(300,336)"/>
<path d="M0 0 C1.32 0.66 2.64 1.32 4 2 C0.04 3.98 0.04 3.98 -4 6 C-4.33 5.01 -4.66 4.02 -5 3 C-3.68 3 -2.36 3 -1 3 C-0.67 2.01 -0.34 1.02 0 0 Z " fill="#7448DF" transform="translate(91,324)"/>
<path d="M0 0 C7.75 -0.125 7.75 -0.125 10 1 C10 1.66 10 2.32 10 3 C3.375 2.25 3.375 2.25 0 0 Z " fill="#7448DF" transform="translate(329,316)"/>
<path d="M0 0 C2.86724686 0.57344937 3.8614515 0.8614515 6 3 C5.01 3.66 4.02 4.32 3 5 C1.68 4.34 0.36 3.68 -1 3 C-0.67 2.01 -0.34 1.02 0 0 Z " fill="#7448DF" transform="translate(93,202)"/>
<path d="M0 0 C1.37562854 1.28965176 2.70766393 2.62689293 4 4 C4 4.66 4 5.32 4 6 C2.35 6 0.7 6 -1 6 C-0.67 4.02 -0.34 2.04 0 0 Z " fill="#7448DF" transform="translate(251,357)"/>
<path d="M0 0 C1.32 0 2.64 0 4 0 C4 0.99 4 1.98 4 3 C2.35 3.66 0.7 4.32 -1 5 C-1 1 -1 1 0 0 Z " fill="#7448DF" transform="translate(421,282)"/>
<path d="M0 0 C0.66 0.66 1.32 1.32 2 2 C1.01 3.485 1.01 3.485 0 5 C-3.125 5.1875 -3.125 5.1875 -6 5 C-6 4.34 -6 3.68 -6 3 C-4.68 3 -3.36 3 -2 3 C-2 2.34 -2 1.68 -2 1 C-1.34 0.67 -0.68 0.34 0 0 Z " fill="#7448DF" transform="translate(43,269)"/>
<path d="M0 0 C2.875 0.3125 2.875 0.3125 6 1 C6.66 1.99 7.32 2.98 8 4 C5.69 3.67 3.38 3.34 1 3 C0.67 2.01 0.34 1.02 0 0 Z " fill="#7448DF" transform="translate(368,258)"/>
<path d="M0 0 C0.99 0 1.98 0 3 0 C5 3 5 3 4.625 5.1875 C4.41875 5.785625 4.2125 6.38375 4 7 C3.34 6.34 2.68 5.68 2 5 C2 4.01 2 3.02 2 2 C1.34 2 0.68 2 0 2 C0 1.34 0 0.68 0 0 Z " fill="#7448DF" transform="translate(39,366)"/>
<path d="M0 0 C-2.68841859 2.25245881 -4.64641875 3.88213958 -8 5 C-8 4.01 -8 3.02 -8 2 C-4.77208445 -0.1519437 -3.71599191 -0.20086443 0 0 Z " fill="#7448DF" transform="translate(103,320)"/>
<path d="M0 0 C-6 4 -6 4 -9 4 C-9 3.01 -9 2.02 -9 1 C-5.92677456 0.08941469 -3.19902639 -0.08886184 0 0 Z " fill="#7448DF" transform="translate(37,274)"/>
<path d="M0 0 C0.99 0.33 1.98 0.66 3 1 C3.33 1.99 3.66 2.98 4 4 C2.35 4.33 0.7 4.66 -1 5 C-0.67 3.35 -0.34 1.7 0 0 Z " fill="#7448DF" transform="translate(35,258)"/>
<path d="M0 0 C2.34058637 2.12780579 3.70700306 4.11562221 5 7 C3.35 6.67 1.7 6.34 0 6 C-1 3 -1 3 0 0 Z " fill="#7448DF" transform="translate(386,225)"/>
<path d="" fill="#7448DF" transform="translate(0,0)"/>
<path d="" fill="#7448DF" transform="translate(0,0)"/>
<path d="" fill="#7448DF" transform="translate(0,0)"/>
<path d="" fill="#7448DF" transform="translate(0,0)"/>
<path d="" fill="#7448DF" transform="translate(0,0)"/>
<path d="" fill="#7448DF" transform="translate(0,0)"/>
<path d="" fill="#7448DF" transform="translate(0,0)"/>
<path d="" fill="#7448DF" transform="translate(0,0)"/>
<path d="" fill="#7448DF" transform="translate(0,0)"/>
<path d="" fill="#7448DF" transform="translate(0,0)"/>
<path d="" fill="#7448DF" transform="translate(0,0)"/>
<path d="" fill="#7448DF" transform="translate(0,0)"/>
<path d="" fill="#7448DF" transform="translate(0,0)"/>
<path d="" fill="#7448DF" transform="translate(0,0)"/>
<path d="" fill="#7448DF" transform="translate(0,0)"/>
<path d="" fill="#7448DF" transform="translate(0,0)"/>
<path d="" fill="#7448DF" transform="translate(0,0)"/>
<path d="" fill="#7448DF" transform="translate(0,0)"/>
<path d="" fill="#7448DF" transform="translate(0,0)"/>
<path d="" fill="#7448DF" transform="translate(0,0)"/>
<path d="" fill="#7448DF" transform="translate(0,0)"/>
<path d="" fill="#7448DF" transform="translate(0,0)"/>
<path d="" fill="#7448DF" transform="translate(0,0)"/>
<path d="" fill="#7448DF" transform="translate(0,0)"/>
<path d="" fill="#7448DF" transform="translate(0,0)"/>
<path d="" fill="#7448DF" transform="translate(0,0)"/>
<path d="" fill="#7448DF" transform="translate(0,0)"/>
<path d="" fill="#7448DF" transform="translate(0,0)"/>
<path d="" fill="#7448DF" transform="translate(0,0)"/>
<path d="" fill="#7448DF" transform="translate(0,0)"/>
<path d="" fill="#7448DF" transform="translate(0,0)"/>
<path d="" fill="#7448DF" transform="translate(0,0)"/>
<path d="" fill="#7448DF" transform="translate(0,0)"/>
<path d="" fill="#7448DF" transform="translate(0,0)"/>
<path d="" fill="#7448DF" transform="translate(0,0)"/>
<path d="" fill="#7448DF" transform="translate(0,0)"/>
<path d="" fill="#7448DF" transform="translate(0,0)"/>
<path d="" fill="#7448DF" transform="translate(0,0)"/>
<path d="" fill="#7448DF" transform="translate(0,0)"/>
<path d="" fill="#7448DF" transform="translate(0,0)"/>
<path d="" fill="#7448DF" transform="translate(0,0)"/>
<path d="" fill="#7448DF" transform="translate(0,0)"/>
<path d="" fill="#7448DF" transform="translate(0,0)"/>
<path d="" fill="#7448DF" transform="translate(0,0)"/>
<path d="" fill="#7448DF" transform="translate(0,0)"/>
<path d="" fill="#7448DF" transform="translate(0,0)"/>
<path d="" fill="#7448DF" transform="translate(0,0)"/>
<path d="" fill="#7448DF" transform="translate(0,0)"/>
</svg>
